# xmcd
#
# Track frame offsets:
# 150
# 18272
# 37609
# 50694
# 67640
# 87978
# 104488
# 121764
# 145954
# 165788
# 186990
# 207402
# 228958
#
# Disc length: 3319 seconds
#
# Revision: 2
# Processed by: cddbd v1.4PL0 Copyright (c) Steve Scherf et al.
# Submitted via: Axialis_AX_CDPlayer 2.6
#
DISCID=9e0cf50d
DTITLE=Chip Taylor and Carrie Rodriguez - The Trouble With Humans
DYEAR=1900
DGENRE=
TTITLE0=Don't Speak in English
TTITLE1=Memphis, Texas
TTITLE2=All the Rain
TTITLE3=Curves and Things
TTITLE4=The Trouble with Humans
TTITLE5=Oh Ireland
TTITLE6=Fall
TTITLE7=Laredo
TTITLE8=Dirty Little Texas Story
TTITLE9=Confessions
TTITLE10=I Need a Wall
TTITLE11=We Come up Shining
TTITLE12=WDVX
EXTD=
EXTT0=The Trouble With Humans
EXTT1=The Trouble With Humans
EXTT2=The Trouble With Humans
EXTT3=The Trouble With Humans
EXTT4=The Trouble With Humans
EXTT5=The Trouble With Humans
EXTT6=The Trouble With Humans
EXTT7=The Trouble With Humans
EXTT8=The Trouble With Humans
EXTT9=The Trouble With Humans
EXTT10=The Trouble With Humans
EXTT11=The Trouble With Humans
EXTT12=The Trouble With Humans
PLAYORDER=
